<svg xmlns="http://www.w3.org/2000/svg" width="513.915" height="395.765" viewBox="0 0 513.915 395.765"><g transform="translate(155.642 -1113.085)"><path d="M554.8,1233.132l12.305-8.336v-3.324l-12.305,8.661" transform="translate(-324.582 -26.765)"/><g transform="translate(-155.199 1114.085)"><line y2="208.546" transform="translate(512.973 80.621)" fill="none" stroke="#000" stroke-miterlimit="10" stroke-width="1"/><g transform="translate(0)"><path d="M716.951,1221.475v3.851h5.818v-3.851Zm3.942,2.92a1.134,1.134,0,1,1,1.134-1.134A1.133,1.133,0,0,1,720.892,1224.4Z" transform="translate(-209.797 -1140.851)"/><path d="M628.164,1222.128v-.653H554.44a6.776,6.776,0,0,1-.8.022c-.556-.015-1.111-.015-1.667-.022H514.792v3.318a6.623,6.623,0,0,1,2.568-.653c.315-.008.638,0,.953-.008l1.99-.023c4.249-.03,8.5.053,12.74-.068.375-.007.7,0,1.014,0l66.667.068v.225h.488c-.165.12-.323.24-.488.36v.293h-.405c-1.622,1.186-2.905,2.14-4.219,3.063q-55.316,38.8-110.654,77.568c-1.734,1.224-3.251,2.83-5.961,2.08-1.014-.285-2.553,1.3-4.114,2.185-9.017-12.951-18.093-25.991-27.343-39.279,11.329-7.8,22.335-15.368,33.341-22.943q11.363-7.827,22.74-15.638h-.743v-2.493c-19.212,13.214-38.949,26.795-58.777,40.428,1.246,1.839,2.417,3.573,3.581,5.293-4.6,3.461-10.338,4.362-17.59,2.575-5.939-1.457-11.839-3-18.041-2.47a38.323,38.323,0,0,0-21.149,8.416c4.219,6.179,8.341,12.207,12.575,18.416-19.865,9.1-39.437,18.063-59.055,27.05v1.044c19.745-9.114,39.535-18.168,59.6-27.358,11.036,16.059,22.087,32.132,33.244,48.371-28.964,23.9-57.853,47.74-87.133,71.9v1.592q40.969-34.065,82-68.056c1.817-1.509,3.656-2.988,5.653-4.617,4.144,5.984,8.108,11.689,12.162,17.538a4.962,4.962,0,0,1,.646-.946c.488-.383,1.021-.706,1.532-1.058a36.2,36.2,0,0,0,14.617-19.655,82.171,82.171,0,0,0,2.335-12.748c.886-6.569,3.168-12.267,9-16.276,1.119,1.531,2.2,3,3.288,4.482.661-.443,1.171-.773,1.667-1.119q49.73-34.269,99.468-68.544c12.463-8.589,24.985-17.095,37.328-25.849a13.025,13.025,0,0,1,5.953-2.613,8.379,8.379,0,0,1,1.892,0v-.931a1.134,1.134,0,1,1,0-2.267ZM395.557,1284.5a34.614,34.614,0,0,1,15.691-5.969c5.931-.856,11.614.353,17.245,1.914,7.478,2.072,14.655,1.922,21.524-2.553.946,1.329,1.794,2.523,2.7,3.807a19.425,19.425,0,0,1-13.018,4.745c-4.595,0-9.264.135-13.761-.608-7.981-1.329-15.008.841-21.794,4.625-.991.555-1.982,1.118-3.213,1.809C399.168,1289.726,397.426,1287.2,395.557,1284.5Zm5.886,8.573c6.186-3.491,12.147-7.057,19.52-6.629,5.3.308,10.6.721,15.9.931,5.878.225,11.457-.826,16.381-4.835.969,1.374,1.809,2.552,2.748,3.866-5.593,3.874-11.644,5.473-18.063,5.984-5.03.4-10.083.6-15.075,1.246-5.938.773-10.961,3.814-15.916,7.41C405.122,1298.4,403.372,1295.867,401.443,1293.074Zm5.961,8.911c4.9-3.806,9.857-6.757,15.8-7.462,5.8-.683,11.7-.668,17.425-1.674a71.581,71.581,0,0,0,13.273-4.167c2.853-1.1,2.725-1.419,4.82,1.817-3.784,1.884-7.342,4.287-11.269,5.473-6.231,1.885-12.7,2.988-19.069,4.37-5.466,1.179-10.233,3.844-14.8,6.907-.458.315-.631,1.044-.916,1.614C410.97,1306.648,409.273,1304.433,407.4,1301.986Zm5.285,6.907c7.267-5.548,15.668-8.153,24.595-9.4a46.771,46.771,0,0,0,20.6-7.748,7.312,7.312,0,0,1,1.239-.541,9.887,9.887,0,0,1,.916,1.021,11.868,11.868,0,0,1,.683,1.276,78.57,78.57,0,0,1-20.473,11.029A78.849,78.849,0,0,0,419,1315.057a16.54,16.54,0,0,1-1.922,1C415.58,1313.608,414.138,1311.25,412.689,1308.893Zm4.85,7.62c5.653-2.988,10.939-6.419,16.689-8.671,9.392-3.686,18.664-7.478,27.125-13.131,1.3.856,1.944,1.592.308,2.763q-18.908,13.5-37.778,27.065a2.858,2.858,0,0,1-.661.188Zm6.224,9.047c13.266-9.257,26.449-18.461,39.888-27.838.833,1.036,1.261,1.562,1.652,2.05-.18.3-.233.5-.36.586a115.036,115.036,0,0,0-20.466,19.234,75.038,75.038,0,0,1-15.631,13.318C427.224,1330.568,425.677,1328.33,423.763,1325.56Zm5.578,8.093A84.292,84.292,0,0,0,448.035,1317a97.231,97.231,0,0,1,8.213-8.288c.961-.863,2.545-1.029,3.829-1.554a7.5,7.5,0,0,0,1.554-.818c1.426-1.044,2.77-2.207,4.249-3.168.481-.315,1.261-.173,1.907-.24.09.353.173.706.255,1.059-9.49,5.818-15.5,14.61-20.894,23.949-3.116,5.405-7.665,9.384-12.966,12.785C432.569,1338.368,431.038,1336.138,429.341,1333.653Zm5.638,8.228c.143-.315.165-.54.285-.615,7.087-4.632,11.9-11.194,16.179-18.356a80.957,80.957,0,0,1,8.228-10.683c.766-.886,2.47-.9,3.619-1.547,1.254-.691,2.32-1.7,3.544-2.478,1.013-.638,2.125-1.119,3.2-1.674a11.432,11.432,0,0,1-1.907,2.868c-6.156,4.985-10.15,11.5-13.378,18.566-3.153,6.915-6.975,13.326-13.033,18.153-.743.593-1.509,1.156-2.5,1.915C437.622,1345.718,436.278,1343.766,434.979,1341.881Zm4.707,6.869c8.844-5.766,13.288-14.707,17.583-23.806a54.649,54.649,0,0,1,4.377-7.26,5.75,5.75,0,0,1,4.317-2.553c1.854-.27,3.438-2.23,5.225-3.318a8.444,8.444,0,0,1,2.32-.623l.383,1.126c-8.086,4.655-11.524,12.238-13.461,20.789-.45,1.974-1.1,3.9-1.622,5.871-2.035,7.718-7.185,13.026-13.649,17.665Zm35.864-31.4c-6.314,5.015-8.544,11.937-9.167,19.587-.908,11.126-5.255,20.436-14.264,27.328-.278.21-.586.375-1.216.773-1.764-2.575-3.4-4.963-5.105-7.455,1.374-1.2,2.583-2.357,3.9-3.386,5.375-4.2,8.574-9.73,10.345-16.246q1.9-7.016,4.332-13.874c.856-2.417,2.117-4.745,5.526-4.159.541.09,1.276-.818,1.869-1.321,1.366-1.156,2.7-2.35,4.054-3.529l.721.608A5.557,5.557,0,0,1,475.55,1317.354Zm2.327-4.137c-.158-.255-.308-.51-.465-.766.953-.706,1.892-1.441,2.868-2.125q43.2-30.237,86.4-60.443c11.824-8.266,23.649-16.539,35.586-24.655,1.4-.953,3.484-.9,5.255-1.321.09.293.188.578.285.871-4.227,3-8.439,6-12.673,8.979q-53.232,37.421-106.48,74.805c-2,1.4-3.7,3.438-6.839,2.605C480.76,1310.882,479.206,1312.482,477.877,1313.217Zm2.342,3.536-.473-.7c.841-.638,1.659-1.314,2.53-1.922q35.867-25.18,71.765-50.346,27.523-19.268,55.158-38.386c1.622-1.111,4.031-1.081,6.074-1.584.105.278.21.555.315.826-.638.518-1.239,1.073-1.914,1.546q-61.926,43.3-123.867,86.577c-1.569,1.1-3.01,2.538-5.27,1.539-.413-.18-1.239.466-1.824.811C481.856,1315.627,481.046,1316.205,480.22,1316.753Zm2.56,3.161c-.2-.27-.405-.533-.608-.8q68.03-47.343,136.082-94.648c.428-.293,1.164-.158,1.99.24Q551.515,1272.312,482.78,1319.914Z" transform="translate(-117.068 -1140.851)"/><path d="M685.113,1225.938l.405-.653h.49l-.49.653" transform="translate(-201.861 -1141.801)"/><path d="M607.779,1114.085H592.2l8.311,104.6a7.27,7.27,0,1,0,14.535,0l8.311-104.6Z" transform="translate(-178.704 -1114.085)" fill="none" stroke="#000" stroke-miterlimit="10" stroke-width="2"/><circle cx="3.981" cy="3.981" r="3.981" transform="translate(425.094 99.397)" fill="none" stroke="#000" stroke-miterlimit="10" stroke-width="1"/><line x1="6.131" y1="29.464" transform="translate(506.842 51.367)" fill="none" stroke="#000" stroke-miterlimit="10" stroke-width="1"/><line x1="33.033" transform="translate(473.808 51.367)" fill="none" stroke="#000" stroke-miterlimit="10" stroke-width="1"/><line x1="218.327" y2="183.555" transform="translate(102.363 210.445)" fill="none" stroke="#000" stroke-miterlimit="10" stroke-width="2"/><line x1="287.446" y2="141.904" transform="translate(0 160.572)" fill="none" stroke="#000" stroke-miterlimit="10" stroke-width="2"/><g transform="translate(451.88 29.157)"><path d="M690.066,1175.692c-1.934,0-3.869-.037-5.8.011-1.715.043-2.047.48-1.771,2.188a9.262,9.262,0,0,0,.423,1.444c.588,1.749,1.062,3.548,1.8,5.232,2.375,5.414,2.668,11.228,3.4,16.959a4.325,4.325,0,0,1-.048,1.746c-.112.375-.593.642-.921.944-.047.043-.163.015-.247.015-3.579-.007-3.067.382-3.921-2.767-.351-1.292-.558-2.623-.9-3.918-.09-.342-.437-.617-.666-.923a4.272,4.272,0,0,0-.378.851c-.368,1.808-.7,3.622-1.059,5.432-.065.327-.074.761-.283.938a1.567,1.567,0,0,1-1.095.328c-.159-.02-.406-.605-.354-.887.653-3.546,1.391-7.076,2.023-10.625a25.17,25.17,0,0,0,.344-4c.057-3.7.034-7.4.065-11.093.014-1.753-.018-1.837-1.8-1.9-1.175-.044-2.354,0-3.53,0-1.132,0-1.543.642-1.254,1.635.319,1.1.872,2.124,1.207,3.217.433,1.413.8,2.851,1.105,4.3.246,1.146.245,2.353.559,3.475,1.165,4.16-.266,8.16-.648,12.223-.086.917-.179,1.839-.357,2.743-.065.332-.382.615-.584.92-.285-.325-.81-.65-.812-.976a33.447,33.447,0,0,1,.265-3.76,17.08,17.08,0,0,1,.446-2.732c1.354-4.838-.232-9.474-.931-14.169a3.409,3.409,0,0,0-.553-1.384,6.105,6.105,0,0,1-1.2-3.771c.047-1.3-.631-1.789-1.878-1.741-1.006.039-2.017-.031-3.025-.038-3.051-.019-6.053-.3-8.77-1.857-.94-.539-1.4-.239-1.6.728a5.094,5.094,0,0,0,.712,4.505c1.97,2.612,3.727,5.388,5.517,8.131a7.629,7.629,0,0,1,1.159,2.482c.779,3.693,1.446,7.41,2.148,11.119a2.394,2.394,0,0,1,.058.753c-.122.881-.055,2.369-.463,2.517a6.87,6.87,0,0,1-3.45.1c-.4-.074-.778-1.014-.931-1.619-.677-2.681-1.375-5.365-1.856-8.086a7.366,7.366,0,0,0-2.581-4.45,13.9,13.9,0,0,1-1.671-1.854.7.7,0,0,1,.126-.653c.137-.143.54-.259.649-.169,1.86,1.511,4.053,2.743,4.652,5.352.658,2.863,1.3,5.729,2,8.583.208.858.3,2.308,1.321,2.106,1.312-.261.675-1.642.508-2.565q-.919-5.08-1.935-10.143a6.261,6.261,0,0,0-.764-2.094c-1.576-2.481-3.217-4.921-4.869-7.353a3.655,3.655,0,0,0-.953-.7,10.425,10.425,0,0,0-.437,1.091c-.647,2.345-1.365,4.677-1.893,7.049-1.146,5.149-3.954,9.6-5.937,14.394-.479,1.159-3.578,1.85-4.64,1.129a1.166,1.166,0,0,1-.468-.837,13.062,13.062,0,0,1,.289-3.186,15.254,15.254,0,0,1,1.511-3.451c2.351-4.047,2.919-8.516,3.268-13.056a8.534,8.534,0,0,0-.594-4.417,7.682,7.682,0,0,1-.6-2.93,28.585,28.585,0,0,1,1.58-10.649c1.014-2.824,2.428-5.2,5.786-5.579.961-.11.651-.739.526-1.309a4.572,4.572,0,0,1,1.427-4.583,4.621,4.621,0,0,1,5.173-.672,4.585,4.585,0,0,1-.8,8.542c-.4.116-.851.07-1.23.219-.25.1-.622.451-.589.623.527,2.748.286,5.881,3.21,7.55a11.191,11.191,0,0,0,3.49,1.224c2.074.38,4.148.59,5.749,2.218.718.728.938.137,1.048-.565a53.82,53.82,0,0,1,.98-5.7,26.488,26.488,0,0,1,1.875-4.632,4.692,4.692,0,0,1,3.915-2.813c1.2-.1,1.264-.566,1.092-1.634a4.542,4.542,0,0,1,5.107-5.486,4.716,4.716,0,0,1,4,3.973,4.5,4.5,0,0,1-2.61,4.726c-.6.272-1.3.329-1.908.6a1.042,1.042,0,0,0-.555.784,20.559,20.559,0,0,0,.723,4.212,6.507,6.507,0,0,0,5.438,4.307,18.711,18.711,0,0,1,3.452.622,10.955,10.955,0,0,1,2.879,1.9,1.5,1.5,0,0,1,.174,1.311c-.075.236-.664.425-1.026.432-2.014.041-4.029.02-6.043.02Z" transform="translate(-643.326 -1152.922)"/><path d="M666.834,1177.165c-3.617.023-6.408-.656-8.746-2.714a11.239,11.239,0,0,0-1.2-.817,10.234,10.234,0,0,1-.111,1.381c-1.2,5.561-2.1,11.214-3.729,16.646-1.364,4.536-3.571,8.822-5.466,13.191-.309.712-.818,1.759-1.817,1.275-1.036-.5-.725-1.582-.348-2.448.869-2,1.7-4.014,2.71-5.942a21.238,21.238,0,0,0,1.951-8.5c.075-1,.128-2.011.271-3,.207-1.445.776-2.839-.658-4.127-.5-.451-.516-1.556-.577-2.375a27.569,27.569,0,0,1,1.707-11.358,9.23,9.23,0,0,1,1.326-2.416,3.307,3.307,0,0,1,3.521-1.42,3.562,3.562,0,0,1,2.664,2.742,6.912,6.912,0,0,1,.119,1.25,7.62,7.62,0,0,0,6.595,7.092c1.068.189,2.143.345,3.206.565.2.042.357.315.534.481-.178.137-.344.368-.535.392C667.585,1177.148,666.912,1177.161,666.834,1177.165Z" transform="translate(-643.758 -1155.795)" fill="#fff"/><path d="M687.518,1177.661c-3.593.043-3.54.052-2.977-3.654A18.458,18.458,0,0,1,687.3,1166a3.056,3.056,0,0,1,3.487-1.407,3.355,3.355,0,0,1,2.606,2.764,6.3,6.3,0,0,1,.092,1c.1,2.755,1.532,4.658,3.706,6.218,1.325.951,2.818.939,4.274,1.264a14.941,14.941,0,0,1,2.376.959,18.253,18.253,0,0,1-2.44.346,11.811,11.811,0,0,1-8.94-3.352,3.157,3.157,0,0,0-.8-.431,5.683,5.683,0,0,1,.093.93c-.035.577-.133,1.15-.188,1.726a1.639,1.639,0,0,1-2.03,1.65C688.866,1177.619,688.191,1177.661,687.518,1177.661Z" transform="translate(-653.528 -1155.8)" fill="#fff"/><path d="M694.953,1197.255c0-1.007-.009-2.015.01-3.021,0-.131.149-.259.23-.388.135.083.322.137.393.258a8.2,8.2,0,0,1,.419.908c1.943,4.444,2.544,9.187,3.1,13.939.156,1.331.323,2.665.381,4,.014.319-.387.656-.6.984-.315-.228-.8-.394-.911-.7a18.5,18.5,0,0,1-.892-3.128C696.326,1205.832,694.674,1201.7,694.953,1197.255Z" transform="translate(-656.186 -1163.121)" fill="#fff"/><path d="M663.922,1161.1a3.223,3.223,0,0,1-3.132-3.019,3.428,3.428,0,0,1,3.284-3.188,3.034,3.034,0,0,1,2.888,3.2A2.976,2.976,0,0,1,663.922,1161.1Z" transform="translate(-647.678 -1153.412)" fill="#fff"/><path d="M697.767,1161.1a3,3,0,0,1-3.071-3.189,3.143,3.143,0,0,1,3.016-3.02,3.486,3.486,0,0,1,3.2,3.237A3.3,3.3,0,0,1,697.767,1161.1Z" transform="translate(-656.129 -1153.411)" fill="#fff"/><path d="M697.653,1181.856a2.522,2.522,0,0,1-.712-.087,8.424,8.424,0,0,1-1.065-.72c-.039-.031.1-.417.161-.419a8.08,8.08,0,0,1,1.254.063.8.8,0,0,1,.435.212,8.573,8.573,0,0,1,.577.679Z" transform="translate(-656.422 -1159.827)" fill="#fff"/><path d="M656.612,1181.7c-1.449.457-.152,2.163-1.261,2.775-.875,6.559-3.474,12.526-6.308,18.413-.408.847-.814,1.7-1.273,2.516-.168.3-.469.7-.748.73a6.839,6.839,0,0,1-2.5-.046c-.225-.06-.327-1.117-.243-1.68a11.828,11.828,0,0,1,.748-2.771,34.746,34.746,0,0,1,1.751-3.536c2.052-3.7,2.173-7.791,2.557-11.856.163-1.727.377-3.34-.789-4.8a1.389,1.389,0,0,1-.253-.749,32.2,32.2,0,0,1,1.564-13.095,6.989,6.989,0,0,1,3.2-3.845c1.188-.641,2.366-.361,3.553-.465" transform="translate(-643.557 -1155.505)" fill="none" stroke="#000" stroke-linecap="round" stroke-linejoin="round" stroke-width="2"/><path d="M661.4,1179.416a22.672,22.672,0,0,0-.949,3.789,4.155,4.155,0,0,0,.729,2.495c2.112,3.078,4.372,6.054,6.5,9.122a6.055,6.055,0,0,1,.768,2.255c.463,2.345.879,4.7,1.27,7.061.29,1.76.447,3.543.793,5.291.16.806-.444.9-.793.983-1.545.387-2.516-.341-2.764-1.986-.4-2.628-1.32-5.135-1.623-7.807a4.866,4.866,0,0,0-1.887-3.579,19.974,19.974,0,0,1-2.547-2.487" transform="translate(-647.593 -1159.525)" fill="none" stroke="#000" stroke-linecap="round" stroke-linejoin="round" stroke-width="2"/><path d="M694.964,1179.416a11.851,11.851,0,0,0-.733,6.554c.2,1.23.777,2.4-.246,3.562-.209.237-.03.815-.03,1.235,0,3.111-.01,6.222.011,9.333a2.248,2.248,0,0,0,.261,1.247c1.613,2.188,1.557,4.873,2.236,7.334.444,1.606.851,1.895,3.041,1.761" transform="translate(-655.927 -1159.525)" fill="none" stroke="#000" stroke-linecap="round" stroke-linejoin="round" stroke-width="2"/><path d="M691.52,1163.268c-3.443-.369-5.228.964-6.768,5.061a26.862,26.862,0,0,0-1.542,11.839,4.506,4.506,0,0,0,.527,2.243c2.319,3.034,1.629,6.761,2.526,10.107.965,3.6-.729,6.892-.807,10.353-.024,1.095-.158,2.186-.242,3.279" transform="translate(-653.239 -1155.486)" fill="none" stroke="#000" stroke-linecap="round" stroke-linejoin="round" stroke-width="2"/><path d="M695.659,1191.848c1.771,2.507,2.337,5.513,3.2,8.348a43.524,43.524,0,0,1,1.081,7.544c.217,1.844.346,3.7.514,5.548" transform="translate(-656.37 -1162.624)" fill="none" stroke="#000" stroke-linecap="round" stroke-linejoin="round" stroke-width="2"/><path d="M697.906,1161.417a3.763,3.763,0,0,0,3.532-3.279c.166-1.482-1.529-3.883-3.027-4.288-1.6-.434-3.694.725-4.541,2.522-.76,1.615-.048,3.1.567,4.514.186.427,1.1.636,1.709.749a4.711,4.711,0,0,0,1.507-.218" transform="translate(-655.841 -1153.13)" fill="none" stroke="#000" stroke-linecap="round" stroke-linejoin="round" stroke-width="2"/><path d="M661.956,1161.939a12.573,12.573,0,0,1,2.02-.487c1.964-.15,2.842-.858,3.278-2.793a3.669,3.669,0,0,0-6.054-3.784,4.073,4.073,0,0,0-.462,6.019,8.67,8.67,0,0,1,2.032,5.329,6.993,6.993,0,0,0,5.494,6.05,20.331,20.331,0,0,0,3.026.49,4.569,4.569,0,0,1,3.071,1.489,4.2,4.2,0,0,0,3.5,1.164c3.42-.263,6.886.073,10.334.131a11.445,11.445,0,0,0,1.766-.239" transform="translate(-647.388 -1153.148)" fill="none" stroke="#000" stroke-linecap="round" stroke-linejoin="round" stroke-width="2"/><path d="M696,1164.632c1.111,1.311,1.134,3.045,1.4,4.56a5.932,5.932,0,0,0,1.607,3.53,7.224,7.224,0,0,0,4.812,2.435,7.894,7.894,0,0,1,5.8,2.592" transform="translate(-656.453 -1155.84)" fill="none" stroke="#000" stroke-linecap="round" stroke-linejoin="round" stroke-width="2"/><path d="M693.979,1176.056c.882,2.7,3.55,3.5,5.622,4.367,1.93.81,4.469.207,6.738.15a7.547,7.547,0,0,0,1.766-.481" transform="translate(-655.951 -1158.688)" fill="none" stroke="#000" stroke-linecap="round" stroke-linejoin="round" stroke-width="2"/><path d="M660.379,1176.728c3.17,3.938,9.469,4.948,14.126,3.532" transform="translate(-647.576 -1158.855)" fill="none" stroke="#000" stroke-linecap="round" stroke-linejoin="round" stroke-width="2"/><path d="M692.889,1209.32c-1.226,1.192-.895,2.846-1.243,4.292-.324,1.349-.311,2.782-1.027,4.032" transform="translate(-655.113 -1166.978)" fill="none" stroke="#000" stroke-linecap="round" stroke-linejoin="round" stroke-width="2"/><path d="M689.784,1219.369s-2.257,2.558-3.225,0" transform="translate(-654.101 -1169.483)" fill="none" stroke="#000" stroke-miterlimit="10" stroke-width="3"/></g></g></g></g></svg>